<svg xmlns="http://www.w3.org/2000/svg" viewBox="0 0 1528.27 841.58">
    <defs>
        <style>
            .cls-1{fill:#fff;stroke:#231f20;}.cls-1,.cls-2{stroke-miterlimit:10;}.cls-2{fill:none;stroke:#b92025;stroke-width:5px;}
        </style>
    </defs>
    <g id="OVERLAYS">
        <rect class="cls-1" x="0.5" y="0.5" width="190.91" height="396.1" />
        <rect class="cls-1" x="191.41" y="0.5" width="190.91" height="198.05" />
        <rect class="cls-1" x="191.41" y="643.03" width="190.91" height="198.05" />
        <rect class="cls-1" x="382.32" y="643.03" width="190.91" height="198.05" />
        <rect class="cls-1" x="573.23" y="643.03" width="190.91" height="198.05" />
        <rect class="cls-1" x="764.14" y="643.03" width="190.91" height="198.05" />
        <rect class="cls-1" x="955.05" y="643.03" width="190.91" height="198.05" />
        <rect class="cls-1" x="477.77" y="316.65" width="190.91" height="198.05" />
        <rect class="cls-1" x="668.68" y="316.65" width="190.91" height="198.05" />
        <rect class="cls-1" x="859.59" y="316.65" width="190.91" height="198.05" />
        <rect class="cls-1" x="1145.95" y="643.03" width="190.91" height="198.05" />
        <rect class="cls-1" x="382.32" y="0.5" width="190.91" height="198.05" />
        <rect class="cls-1" x="573.23" y="0.5" width="190.91" height="198.05" />
        <rect class="cls-1" x="764.14" y="0.5" width="190.91" height="198.05" />
        <rect class="cls-1" x="955.05" y="0.5" width="190.91" height="198.05" />
        <rect class="cls-1" x="1145.95" y="0.5" width="190.91" height="198.05" />
        <rect class="cls-1" x="1336.86" y="0.5" width="190.91" height="276.01" />
        <circle class="cls-1" cx="1435.08" cy="415.68" r="59.05" />
    </g>
    <g id="DOORS">
        <line id="DF1" class="cls-2" x1="1376.03" y1="415.68" x2="1364.84" y2="415.68" />
        <line id="DF2" class="cls-2" x1="1241.41" y1="647.85" x2="1241.41" y2="636.66" />
        <line id="DF3" class="cls-2" x1="1050.5" y1="647.85" x2="1050.5" y2="636.66" />
        <line id="DF4" class="cls-2" x1="859.59" y1="648.63" x2="859.59" y2="637.44" />
        <line id="DF5" class="cls-2" x1="668.68" y1="648.63" x2="668.68" y2="637.44" />
        <line id="DF6" class="cls-2" x1="477.77" y1="647.85" x2="477.77" y2="636.66" />
        <line id="DF7" class="cls-2" x1="286.86" y1="648.63" x2="286.86" y2="637.44" />
        <line id="DF8" class="cls-2" x1="286.86" y1="204.15" x2="286.86" y2="192.96" />
        <line id="DF9" class="cls-2" x1="477.77" y1="202.95" x2="477.77" y2="191.76" />
        <line id="DF10" class="cls-2" x1="668.68" y1="202.95" x2="668.68" y2="191.76" />
        <line id="DF11" class="cls-2" x1="859.59" y1="204.15" x2="859.59" y2="192.96" />
        <line id="DF12" class="cls-2" x1="1050.5" y1="204.15" x2="1050.5" y2="192.96" />
        <line id="DF13" class="cls-2" x1="955.05" y1="322.25" x2="955.05" y2="249.23" />
        <line id="DF14" class="cls-2" x1="764.14" y1="322.25" x2="764.14" y2="249.23" />
        <line id="DF15" class="cls-2" x1="570.52" y1="520.3" x2="570.52" y2="509.11" />
        <line id="DF16" class="cls-2" x1="95.95" y1="402.2" x2="95.95" y2="391.01" />
        <line id="DF17" class="cls-2" x1="1241.41" y1="204.15" x2="1241.41" y2="192.96" />
        <line id="DF18" class="cls-2" x1="1432.32" y1="282.1" x2="1432.32" y2="270.92" />
        <line id="DF19" class="cls-2" x1="859.59" y1="249.23" x2="955.05" y2="249.23" />
    </g>
    <g id="PATHS">
        <line id="L1" fill="none" stroke="#F15E22" stroke-width="5" x1="1364.84" y1="415.68"
            x2="1241.41" y2="415.68" />
        <line id="L2" fill="none" stroke="#F15E22" stroke-width="5" x1="1410.52" y1="514.71"
            x2="1409.74" y2="514.71" />
        <line id="L3" fill="none" stroke="#F15E22" stroke-width="5" x1="1241.41" y1="415.68"
            x2="1241.41" y2="341.36" />
        <line id="L4" fill="none" stroke="#F15E22" stroke-width="5" x1="1241.41" y1="341.36"
            x2="1432.32" y2="341.36" />
        <line id="L5" fill="none" stroke="#F15E22" stroke-width="5" x1="1432.32" y1="282.1"
            x2="1432.32" y2="341.36" />
        <line id="L6" fill="none" stroke="#F15E22" stroke-width="5" x1="1241.41" y1="249.23"
            x2="1241.41" y2="341.36" />
        <line id="L7" fill="none" stroke="#F15E22" stroke-width="5" x1="1241.41" y1="204.15"
            x2="1241.41" y2="249.23" />
        <line id="L8" fill="none" stroke="#F15E22" stroke-width="5" x1="1050.5" y1="249.23"
            x2="1241.41" y2="249.23" />
        <line id="L9" fill="none" stroke="#F15E22" stroke-width="5" x1="1050.5" y1="204.15"
            x2="1050.5" y2="249.23" />
        <line id="L10" fill="none" stroke="#F15E22" stroke-width="5" x1="859.59" y1="204.15"
            x2="859.59" y2="249.23" />
        <line id="L11" fill="none" stroke="#F15E22" stroke-width="5" x1="668.68" y1="202.95"
            x2="668.68" y2="249.23" />
        <line id="L12" fill="none" stroke="#F15E22" stroke-width="5" x1="477.77" y1="202.95"
            x2="477.77" y2="249.23" />
        <line id="L13" fill="none" stroke="#F15E22" stroke-width="5" x1="286.86" y1="204.15"
            x2="286.86" y2="249.23" />
        <line id="L14" fill="none" stroke="#F15E22" stroke-width="5" x1="477.77" y1="249.23"
            x2="668.68" y2="249.23" />
        <line id="L15" fill="none" stroke="#F15E22" stroke-width="5" x1="286.86" y1="249.23"
            x2="477.77" y2="249.23" />
        <line id="L16" fill="none" stroke="#F15E22" stroke-width="5" x1="1050.5" y1="249.23"
            x2="955.05" y2="249.23" />
        <line id="L17" fill="none" stroke="#F15E22" stroke-width="5" x1="764.14" y1="249.23"
            x2="859.59" y2="249.23" />
        <line id="L18" fill="none" stroke="#F15E22" stroke-width="5" x1="668.68" y1="249.23"
            x2="764.14" y2="249.23" />
        <line id="L19" fill="none" stroke="#F15E22" stroke-width="5" x1="286.86" y1="249.23"
            x2="286.86" y2="575.94" />
        <line id="L20" fill="none" stroke="#F15E22" stroke-width="5" x1="95.95" y1="402.2"
            x2="95.95" y2="575.94" />
        <line id="L21" fill="none" stroke="#F15E22" stroke-width="5" x1="286.86" y1="575.94"
            x2="95.95" y2="575.94" />
        <line id="L22" fill="none" stroke="#F15E22" stroke-width="5" x1="286.86" y1="637.44"
            x2="286.86" y2="575.94" />
        <line id="L23" fill="none" stroke="#F15E22" stroke-width="5" x1="477.77" y1="636.66"
            x2="477.77" y2="575.94" />
        <line id="L24" fill="none" stroke="#F15E22" stroke-width="5" x1="668.68" y1="637.44"
            x2="668.68" y2="575.94" />
        <line id="L25" fill="none" stroke="#F15E22" stroke-width="5" x1="859.59" y1="637.44"
            x2="859.59" y2="575.94" />
        <line id="L26" fill="none" stroke="#F15E22" stroke-width="5" x1="1050.5" y1="636.66"
            x2="1050.5" y2="575.94" />
        <line id="L27" fill="none" stroke="#F15E22" stroke-width="5" x1="570.52" y1="520.3"
            x2="570.52" y2="575.94" />
        <line id="L28" fill="none" stroke="#F15E22" stroke-width="5" x1="1241.41" y1="636.66"
            x2="1241.41" y2="575.94" />
        <line id="L29" fill="none" stroke="#F15E22" stroke-width="5" x1="1241.41" y1="415.68"
            x2="1241.41" y2="575.94" />
        <line id="L30" fill="none" stroke="#F15E22" stroke-width="5" x1="1050.5" y1="575.94"
            x2="1241.41" y2="575.94" />
        <line id="L31" fill="none" stroke="#F15E22" stroke-width="5" x1="859.59" y1="575.94"
            x2="1050.5" y2="575.94" />
        <line id="L32" fill="none" stroke="#F15E22" stroke-width="5" x1="668.68" y1="575.94"
            x2="859.59" y2="575.94" />
        <line id="L33" fill="none" stroke="#F15E22" stroke-width="5" x1="570.52" y1="575.94"
            x2="668.68" y2="575.94" />
        <line id="L34" fill="none" stroke="#F15E22" stroke-width="5" x1="477.77" y1="575.94"
            x2="570.52" y2="575.94" />
        <line id="L35" fill="none" stroke="#F15E22" stroke-width="5" x1="286.86" y1="575.94"
            x2="477.77" y2="575.94" />
    </g>
</svg>